<svg width="20" height="20" viewBox="0 0 20 20" fill="none" xmlns="http://www.w3.org/2000/svg">
<path fill-rule="evenodd" clip-rule="evenodd" d="M9.37374 2.91699C6.01928 2.91699 3.29996 5.63632 3.29996 8.99079C3.29996 12.3452 6.01928 15.0645 9.37374 15.0645C12.7282 15.0645 15.4475 12.3452 15.4475 8.99079C15.4475 5.63632 12.7282 2.91699 9.37374 2.91699ZM2.04996 8.99079C2.04996 4.94597 5.32892 1.66699 9.37374 1.66699C13.4186 1.66699 16.6975 4.94597 16.6975 8.99079C16.6975 13.0356 13.4186 16.3145 9.37374 16.3145C5.32892 16.3145 2.04996 13.0356 2.04996 8.99079Z" fill="#525866"/>
<path fill-rule="evenodd" clip-rule="evenodd" d="M13.9466 13.0396L18.6262 17.707L17.7434 18.592L13.0638 13.9246L13.9466 13.0396Z" fill="#525866"/>
</svg>
