<svg width="20" height="20" viewBox="0 0 20 20" fill="none" xmlns="http://www.w3.org/2000/svg">
<path fill-rule="evenodd" clip-rule="evenodd" d="M10.0023 8.42888C8.89243 8.42888 7.99236 9.2924 7.99236 10.3585C7.99236 11.4239 8.89251 12.2881 10.0023 12.2881C11.1122 12.2881 12.0123 11.4239 12.0123 10.3585C12.0123 9.2924 11.1123 8.42888 10.0023 8.42888ZM6.74236 10.3585C6.74236 8.62936 8.20231 7.22888 10.0023 7.22888C11.8024 7.22888 13.2623 8.62936 13.2623 10.3585C13.2623 12.0866 11.8025 13.4881 10.0023 13.4881C8.20218 13.4881 6.74236 12.0866 6.74236 10.3585Z" fill="#717784"/>
<path fill-rule="evenodd" clip-rule="evenodd" d="M4.14628 5.99548C5.64161 4.78181 7.70895 3.91687 10.0016 3.91687C12.2939 3.91687 14.3612 4.78113 15.8566 5.99451C17.3359 7.19468 18.3366 8.80808 18.3366 10.3585C18.3366 11.9089 17.3359 13.5222 15.8566 14.7224C14.3612 15.9358 12.2939 16.8001 10.0016 16.8001C7.70895 16.8001 5.64161 15.9351 4.14628 14.7214C2.6673 13.521 1.66667 11.9077 1.66667 10.3585C1.66667 8.80928 2.6673 7.19588 4.14628 5.99548ZM4.95332 6.91186C3.64189 7.97626 2.91667 9.28368 2.91667 10.3585C2.91667 11.4333 3.64189 12.7406 4.95332 13.8051C6.2484 14.8562 8.03606 15.6001 10.0016 15.6001C11.967 15.6001 13.7546 14.8567 15.0498 13.8059C16.3612 12.7418 17.0866 11.4345 17.0866 10.3585C17.0866 9.28248 16.3612 7.97506 15.0498 6.91102C13.7546 5.8602 11.967 5.11687 10.0016 5.11687C8.03606 5.11687 6.2484 5.86073 4.95332 6.91186Z" fill="#717784"/>
</svg>
