<svg width="444" height="36" viewBox="0 0 444 36" fill="none" xmlns="http://www.w3.org/2000/svg">
<g clip-path="url(#clip0_2195_31390)">
<g clip-path="url(#clip1_2195_31390)">
<path fill-rule="evenodd" clip-rule="evenodd" d="M201.9 2.15804C200.868 0.192436 197.474 0.809836 194.541 1.59524C181.791 6.29364 177.281 15.8417 175.696 21.5299C175.617 21.6727 175.57 21.8365 175.566 22.0115C174.938 24.4251 174.853 26.0337 174.852 26.0869C174.828 26.6651 175.277 27.1537 175.855 27.1775C175.871 27.1789 175.886 27.1789 175.902 27.1789C176.46 27.1789 176.925 26.7379 176.95 26.1737C176.957 26.0029 177.022 24.8283 177.418 23.0727C180.929 22.9243 184.464 21.6167 187.936 19.1751C188.208 18.9847 188.373 18.6767 188.383 18.3463C188.392 18.0145 188.244 17.6981 187.985 17.4937L186.383 16.2253L191.639 15.7101C191.853 15.6891 192.055 15.6037 192.219 15.4637C192.332 15.3685 195.007 13.0781 197.553 10.4082C201.424 6.34824 202.763 3.80444 201.9 2.15804Z" fill="#335CFF"/>
<path fill-rule="evenodd" clip-rule="evenodd" d="M195.678 25.0798H186.704C186.125 25.0798 185.654 25.5502 185.654 26.1298C185.654 26.7094 186.125 27.1798 186.704 27.1798H195.678C196.258 27.1798 196.728 26.7094 196.728 26.1298C196.728 25.5502 196.258 25.0798 195.678 25.0798Z" fill="#335CFF"/>
</g>
<path d="M217.836 23.615C217.269 23.615 216.862 23.4923 216.617 23.247C216.372 22.9863 216.249 22.5033 216.249 21.798C216.249 21.3227 216.295 20.7477 216.387 20.073C216.479 19.3983 216.64 18.3787 216.87 17.014C216.901 16.83 217.023 16.0863 217.238 14.783C217.453 13.4643 217.644 12.0843 217.813 10.643C217.966 9.41633 218.043 8.49633 218.043 7.883C218.043 7.193 217.79 6.848 217.284 6.848C216.901 6.848 216.418 7.055 215.835 7.469C215.268 7.86767 214.654 8.51167 213.995 9.401C213.78 9.69233 213.543 9.838 213.282 9.838C213.067 9.838 212.876 9.73833 212.707 9.539C212.554 9.32433 212.477 9.08667 212.477 8.826C212.477 8.56533 212.523 8.32 212.615 8.09C212.707 7.84467 212.876 7.55333 213.121 7.216C213.872 6.18867 214.708 5.399 215.628 4.847C216.548 4.27967 217.514 3.996 218.526 3.996C219.369 3.996 219.998 4.25667 220.412 4.778C220.841 5.29933 221.056 6.05833 221.056 7.055C221.056 7.94433 220.933 9.23233 220.688 10.919C221.455 8.64967 222.428 6.93233 223.609 5.767C224.79 4.58633 226.177 3.996 227.772 3.996C229.029 3.996 229.972 4.35633 230.601 5.077C231.245 5.78233 231.567 6.733 231.567 7.929C231.567 8.60367 231.467 9.424 231.268 10.39L229.865 16.968C229.712 17.7347 229.635 18.394 229.635 18.946C229.635 19.59 229.781 20.073 230.072 20.395C230.379 20.717 230.8 20.878 231.337 20.878C231.843 20.878 232.334 20.7093 232.809 20.372C233.3 20.0347 233.875 19.475 234.534 18.693C234.718 18.4783 234.925 18.371 235.155 18.371C235.354 18.371 235.508 18.463 235.615 18.647C235.738 18.831 235.799 19.084 235.799 19.406C235.799 20.004 235.653 20.4793 235.362 20.832C234.565 21.798 233.775 22.5033 232.993 22.948C232.211 23.3927 231.391 23.615 230.532 23.615C229.229 23.615 228.209 23.2317 227.473 22.465C226.737 21.683 226.369 20.6403 226.369 19.337C226.369 18.831 226.407 18.279 226.484 17.681C226.576 17.083 226.722 16.324 226.921 15.404L227.841 11.195C227.872 11.057 227.925 10.8117 228.002 10.459C228.079 10.1063 228.14 9.77667 228.186 9.47C228.232 9.148 228.255 8.83367 228.255 8.527C228.255 8.03633 228.117 7.64533 227.841 7.354C227.565 7.06267 227.174 6.917 226.668 6.917C225.748 6.917 224.828 7.40767 223.908 8.389C222.988 9.37033 222.137 10.9573 221.355 13.15C220.573 15.3273 219.96 18.118 219.515 21.522C219.408 22.304 219.247 22.8483 219.032 23.155C218.833 23.4617 218.434 23.615 217.836 23.615ZM245.201 16.439C245.4 16.439 245.554 16.5387 245.661 16.738C245.768 16.9373 245.822 17.1903 245.822 17.497C245.822 18.233 245.6 18.67 245.155 18.808C244.235 19.13 243.223 19.314 242.119 19.36C241.828 20.648 241.253 21.683 240.394 22.465C239.535 23.2317 238.562 23.615 237.473 23.615C236.553 23.615 235.763 23.3927 235.104 22.948C234.46 22.5033 233.969 21.913 233.632 21.177C233.295 20.441 233.126 19.6437 233.126 18.785C233.126 17.6197 233.348 16.5847 233.793 15.68C234.238 14.76 234.851 14.047 235.633 13.541C236.415 13.0197 237.281 12.759 238.232 12.759C239.397 12.759 240.333 13.1653 241.038 13.978C241.759 14.7753 242.18 15.7643 242.303 16.945C243.024 16.899 243.882 16.7457 244.879 16.485C245.002 16.4543 245.109 16.439 245.201 16.439ZM237.657 21.177C238.148 21.177 238.569 20.9777 238.922 20.579C239.29 20.1803 239.535 19.6053 239.658 18.854C239.183 18.532 238.815 18.1103 238.554 17.589C238.309 17.0677 238.186 16.5157 238.186 15.933C238.186 15.6877 238.209 15.4423 238.255 15.197H238.14C237.527 15.197 237.013 15.496 236.599 16.094C236.2 16.6767 236.001 17.5047 236.001 18.578C236.001 19.4213 236.162 20.0653 236.484 20.51C236.821 20.9547 237.212 21.177 237.657 21.177ZM254.23 18.371C254.429 18.371 254.583 18.463 254.69 18.647C254.813 18.831 254.874 19.084 254.874 19.406C254.874 20.0193 254.728 20.4947 254.437 20.832C253.778 21.6447 253.057 22.3117 252.275 22.833C251.493 23.3543 250.596 23.615 249.584 23.615C246.456 23.615 244.892 21.4147 244.892 17.014C244.892 16.3393 244.915 15.657 244.961 14.967H244.064C243.604 14.967 243.29 14.8827 243.121 14.714C242.968 14.5453 242.891 14.277 242.891 13.909C242.891 13.0503 243.236 12.621 243.926 12.621H245.237C245.498 10.9343 245.896 9.39333 246.433 7.998C246.97 6.60267 247.614 5.491 248.365 4.663C249.132 3.835 249.952 3.421 250.826 3.421C251.47 3.421 251.976 3.70467 252.344 4.272C252.712 4.83933 252.896 5.55233 252.896 6.411C252.896 8.78767 251.899 10.8577 249.906 12.621H252.482C252.727 12.621 252.904 12.6747 253.011 12.782C253.118 12.8893 253.172 13.0887 253.172 13.38C253.172 14.438 252.306 14.967 250.573 14.967H247.767C247.736 15.7337 247.721 16.3317 247.721 16.761C247.721 18.3557 247.905 19.475 248.273 20.119C248.656 20.763 249.254 21.085 250.067 21.085C250.726 21.085 251.309 20.8857 251.815 20.487C252.321 20.0883 252.919 19.4903 253.609 18.693C253.793 18.4783 254 18.371 254.23 18.371ZM250.205 5.629C249.975 5.629 249.714 5.92033 249.423 6.503C249.147 7.07033 248.879 7.86767 248.618 8.895C248.373 9.907 248.166 11.034 247.997 12.276C248.902 11.494 249.576 10.62 250.021 9.654C250.481 8.67267 250.711 7.78333 250.711 6.986C250.711 6.08133 250.542 5.629 250.205 5.629ZM262.799 18.371C262.999 18.371 263.152 18.463 263.259 18.647C263.382 18.831 263.443 19.084 263.443 19.406C263.443 20.0193 263.298 20.4947 263.006 20.832C262.439 21.522 261.634 22.1583 260.591 22.741C259.564 23.3237 258.46 23.615 257.279 23.615C255.669 23.615 254.42 23.178 253.53 22.304C252.641 21.43 252.196 20.234 252.196 18.716C252.196 17.658 252.419 16.6767 252.863 15.772C253.308 14.852 253.921 14.1237 254.703 13.587C255.501 13.0503 256.398 12.782 257.394 12.782C258.284 12.782 258.997 13.0503 259.533 13.587C260.07 14.1083 260.338 14.8213 260.338 15.726C260.338 16.784 259.955 17.6963 259.188 18.463C258.437 19.2143 257.157 19.8123 255.347 20.257C255.731 20.9623 256.459 21.315 257.532 21.315C258.222 21.315 259.004 21.0773 259.878 20.602C260.768 20.1113 261.534 19.475 262.178 18.693C262.362 18.4783 262.569 18.371 262.799 18.371ZM257.003 15.036C256.436 15.036 255.953 15.3657 255.554 16.025C255.171 16.6843 254.979 17.4817 254.979 18.417V18.463C255.884 18.2483 256.597 17.9263 257.118 17.497C257.64 17.0677 257.9 16.5693 257.9 16.002C257.9 15.7107 257.816 15.4807 257.647 15.312C257.494 15.128 257.279 15.036 257.003 15.036ZM265.389 24.121C264.591 24.121 263.978 23.937 263.549 23.569C263.135 23.201 262.928 22.787 262.928 22.327C262.928 21.9283 263.073 21.5833 263.365 21.292C263.656 21.0007 264.085 20.855 264.653 20.855C264.852 20.855 265.082 20.878 265.343 20.924C265.619 20.9547 265.826 20.9777 265.964 20.993C265.948 20.5943 265.856 20.2187 265.688 19.866C265.534 19.5133 265.335 19.176 265.09 18.854C264.844 18.5167 264.614 18.2253 264.4 17.98C263.924 18.8847 263.449 19.636 262.974 20.234C262.514 20.832 262.008 21.3993 261.456 21.936C261.18 22.212 260.888 22.35 260.582 22.35C260.336 22.35 260.137 22.2657 259.984 22.097C259.83 21.913 259.754 21.6907 259.754 21.43C259.754 21.1233 259.861 20.8397 260.076 20.579L260.375 20.211C261.218 19.1683 261.854 18.3097 262.284 17.635C262.56 17.1903 262.836 16.6613 263.112 16.048C263.403 15.4347 263.779 14.599 264.239 13.541C264.53 12.8663 265.136 12.529 266.056 12.529C266.485 12.529 266.784 12.5673 266.953 12.644C267.121 12.7207 267.206 12.8433 267.206 13.012C267.206 13.104 267.175 13.2497 267.114 13.449C267.052 13.6483 266.968 13.8477 266.861 14.047C266.585 14.599 266.447 15.0667 266.447 15.45C266.447 15.68 266.523 15.933 266.677 16.209C266.845 16.485 267.098 16.83 267.436 17.244C267.926 17.888 268.294 18.44 268.54 18.9C268.8 19.3447 268.931 19.8353 268.931 20.372C268.931 21.016 268.777 21.6293 268.471 22.212C268.179 22.7793 267.765 23.2393 267.229 23.592C266.692 23.9447 266.079 24.121 265.389 24.121Z" fill="#ffffff"/>
</g>
<defs>
<clipPath id="clip0_2195_31390">
<rect width="95" height="28" fill="white" transform="translate(174.5)"/>
</clipPath>
<clipPath id="clip1_2195_31390">
<rect width="28" height="28" fill="white" transform="translate(174.5)"/>
</clipPath>
</defs>
</svg>
